HIERARCHY
ROOT Hips
{
	OFFSET 0.000000 103.266502 0.000000
	CHANNELS 6 Xposition Yposition Zposition Xrotation Yrotation Zrotation 
	JOINT Spine
	{
		OFFSET -0.002400 12.777504 0.315300
		CHANNELS 3 Xrotation Yrotation Zrotation
		JOINT Spine1
		{
			OFFSET -0.002067 5.816869 0.032633
			CHANNELS 3 Xrotation Yrotation Zrotation
			JOINT Spine1_split
			{
				OFFSET -0.002067 5.816869 0.032633
				CHANNELS 3 Xrotation Yrotation Zrotation
				JOINT Spine2
				{
					OFFSET -0.002067 5.816869 0.032633
					CHANNELS 3 Xrotation Yrotation Zrotation
					JOINT Neck
					{
						OFFSET -0.003700 21.199493 -0.826900
						CHANNELS 3 Xrotation Yrotation Zrotation
						JOINT Head
						{
							OFFSET 0.000000 20.442200 4.834800
							CHANNELS 3 Xrotation Yrotation Zrotation
							JOINT HeadTop_End
							{
								OFFSET 0.000000 34.668396 4.968400
								CHANNELS 3 Xrotation Yrotation Zrotation
								End Site
								{
									OFFSET 0.000000 0.000000 0.000000
								}
							}
						}
					}
					JOINT LeftShoulder
					{
						OFFSET 3.288150 8.794197 -1.372250
						CHANNELS 3 Xrotation Yrotation Zrotation
						JOINT LeftShoulder_split
						{
							OFFSET 3.288150 8.794197 -1.372250
							CHANNELS 3 Xrotation Yrotation Zrotation
							JOINT LeftArm
							{
								OFFSET 11.953299 -2.279007 -0.146200
								CHANNELS 3 Xrotation Yrotation Zrotation
								JOINT LeftForeArm
								{
									OFFSET 18.448900 0.000000 0.000000
									CHANNELS 3 Xrotation Yrotation Zrotation
									JOINT LeftHand
									{
										OFFSET 29.527798 0.000000 0.000000
										CHANNELS 3 Xrotation Yrotation Zrotation
										JOINT LeftHandThumb1
										{
											OFFSET 10.739754 -2.369614 9.225399
											CHANNELS 3 Xrotation Yrotation Zrotation
											JOINT LeftHandThumb2
											{
												OFFSET 4.926170 -2.844131 2.844125
												CHANNELS 3 Xrotation Yrotation Zrotation
												JOINT LeftHandThumb3
												{
													OFFSET 4.614891 -2.664413 2.664409
													CHANNELS 3 Xrotation Yrotation Zrotation
													JOINT LeftHandThumb4
													{
														OFFSET 4.432465 -2.559082 2.559083
														CHANNELS 3 Xrotation Yrotation Zrotation
														End Site
														{
															OFFSET 0.000000 0.000000 0.000000
														}
													}
												}
											}
										}
										JOINT LeftHandIndex1
										{
											OFFSET 26.467674 0.187653 6.405298
											CHANNELS 3 Xrotation Yrotation Zrotation
											JOINT LeftHandIndex2
											{
												OFFSET 8.792900 0.000000 0.000000
												CHANNELS 3 Xrotation Yrotation Zrotation
												JOINT LeftHandIndex3
												{
													OFFSET 10.075203 0.000000 0.000000
													CHANNELS 3 Xrotation Yrotation Zrotation
													End Site
													{
														OFFSET 0.000000 0.000000 0.000000
													}
												}
											}
										}
										JOINT LeftHandMiddle1
										{
											OFFSET 25.764404 0.000000 0.000000
											CHANNELS 3 Xrotation Yrotation Zrotation
											JOINT LeftHandMiddle2
											{
												OFFSET 9.393974 0.000000 0.000000
												CHANNELS 3 Xrotation Yrotation Zrotation
												JOINT LeftHandMiddle3
												{
													OFFSET 10.771950 0.000000 0.000000
													CHANNELS 3 Xrotation Yrotation Zrotation
													End Site
													{
														OFFSET 0.000000 0.000000 0.000000
													}
												}
											}
										}
										JOINT LeftHandRing1
										{
											OFFSET 24.660927 0.144547 -6.225808
											CHANNELS 3 Xrotation Yrotation Zrotation
											JOINT LeftHandRing2
											{
												OFFSET 9.393799 0.000000 0.000000
												CHANNELS 3 Xrotation Yrotation Zrotation
												JOINT LeftHandRing3
												{
													OFFSET 9.928497 0.000000 0.000000
													CHANNELS 3 Xrotation Yrotation Zrotation
													End Site
													{
														OFFSET 0.000000 0.000000 0.000000
													}
												}
											}
										}
										JOINT LeftHandPinky1
										{
											OFFSET 23.655350 0.125290 -12.815412
											CHANNELS 3 Xrotation Yrotation Zrotation
											JOINT LeftHandPinky2
											{
												OFFSET 8.425102 0.000000 0.000000
												CHANNELS 3 Xrotation Yrotation Zrotation
												JOINT LeftHandPinky3
												{
													OFFSET 8.147003 0.000000 0.000000
													CHANNELS 3 Xrotation Yrotation Zrotation
													End Site
													{
														OFFSET 0.000000 0.000000 0.000000
													}
												}
											}
										}
									}
								}
							}
						}
					}
					JOINT RightShoulder
					{
						OFFSET -3.249400 8.794197 -1.372250
						CHANNELS 3 Xrotation Yrotation Zrotation
						JOINT RightShoulder_split
						{
							OFFSET -3.249400 8.794197 -1.372250
							CHANNELS 3 Xrotation Yrotation Zrotation
							JOINT RightArm
							{
								OFFSET -11.953299 -2.279007 -0.146200
								CHANNELS 3 Xrotation Yrotation Zrotation
								JOINT RightForeArm
								{
									OFFSET -18.448900 0.000000 0.000000
									CHANNELS 3 Xrotation Yrotation Zrotation
									JOINT RightHand
									{
										OFFSET -29.527802 0.000000 0.000000
										CHANNELS 3 Xrotation Yrotation Zrotation
										JOINT RightHandThumb1
										{
											OFFSET -10.739754 -2.369614 9.225399
											CHANNELS 3 Xrotation Yrotation Zrotation
											JOINT RightHandThumb2
											{
												OFFSET -4.926170 -2.844131 2.844125
												CHANNELS 3 Xrotation Yrotation Zrotation
												JOINT RightHandThumb3
												{
													OFFSET -4.614891 -2.664413 2.664409
													CHANNELS 3 Xrotation Yrotation Zrotation
													JOINT RightHandThumb4
													{
														OFFSET -4.432465 -2.559082 2.559083
														CHANNELS 3 Xrotation Yrotation Zrotation
														End Site
														{
															OFFSET 0.000000 0.000000 0.000000
														}
													}
												}
											}
										}
										JOINT RightHandIndex1
										{
											OFFSET -26.467674 0.187653 6.405298
											CHANNELS 3 Xrotation Yrotation Zrotation
											JOINT RightHandIndex2
											{
												OFFSET -8.792900 0.000000 0.000000
												CHANNELS 3 Xrotation Yrotation Zrotation
												JOINT RightHandIndex3
												{
													OFFSET -10.075203 0.000000 0.000000
													CHANNELS 3 Xrotation Yrotation Zrotation
													End Site
													{
														OFFSET 0.000000 0.000000 0.000000
													}
												}
											}
										}
										JOINT RightHandMiddle1
										{
											OFFSET -25.764404 0.000000 0.000000
											CHANNELS 3 Xrotation Yrotation Zrotation
											JOINT RightHandMiddle2
											{
												OFFSET -9.393974 0.000000 0.000000
												CHANNELS 3 Xrotation Yrotation Zrotation
												JOINT RightHandMiddle3
												{
													OFFSET -10.771950 0.000000 0.000000
													CHANNELS 3 Xrotation Yrotation Zrotation
													End Site
													{
														OFFSET 0.000000 0.000000 0.000000
													}
												}
											}
										}
										JOINT RightHandRing1
										{
											OFFSET -24.660927 0.144547 -6.225808
											CHANNELS 3 Xrotation Yrotation Zrotation
											JOINT RightHandRing2
											{
												OFFSET -9.393799 0.000000 0.000000
												CHANNELS 3 Xrotation Yrotation Zrotation
												JOINT RightHandRing3
												{
													OFFSET -9.928497 0.000000 0.000000
													CHANNELS 3 Xrotation Yrotation Zrotation
													End Site
													{
														OFFSET 0.000000 0.000000 0.000000
													}
												}
											}
										}
										JOINT RightHandPinky1
										{
											OFFSET -23.655350 0.125290 -12.815412
											CHANNELS 3 Xrotation Yrotation Zrotation
											JOINT RightHandPinky2
											{
												OFFSET -8.425102 0.000000 0.000000
												CHANNELS 3 Xrotation Yrotation Zrotation
												JOINT RightHandPinky3
												{
													OFFSET -8.147003 0.000000 0.000000
													CHANNELS 3 Xrotation Yrotation Zrotation
													End Site
													{
														OFFSET 0.000000 0.000000 0.000000
													}
												}
											}
										}
									}
								}
							}
						}
					}
				}
			}
		}
	}
	JOINT LeftUpLeg
	{
		OFFSET 11.394100 -6.187798 -0.413800
		CHANNELS 3 Xrotation Yrotation Zrotation
		JOINT LeftLeg
		{
			OFFSET 0.430247 -32.302673 3.732800
			CHANNELS 3 Xrotation Yrotation Zrotation
			JOINT LeftFoot
			{
				OFFSET -0.430247 -48.264931 -6.423300
				CHANNELS 3 Xrotation Yrotation Zrotation
				JOINT LeftToeBase
				{
					OFFSET 4.230900 -16.068199 23.438400
					CHANNELS 3 Xrotation Yrotation Zrotation
					JOINT LeftToe_End
					{
						OFFSET 4.510700 0.695400 19.974600
						CHANNELS 3 Xrotation Yrotation Zrotation
						End Site
						{
							OFFSET 0.000000 0.000000 0.000000
						}
					}
				}
			}
		}
	}
	JOINT RightUpLeg
	{
		OFFSET -11.333700 -6.187798 -0.413800
		CHANNELS 3 Xrotation Yrotation Zrotation
		JOINT RightLeg
		{
			OFFSET -0.430392 -32.302628 3.733000
			CHANNELS 3 Xrotation Yrotation Zrotation
			JOINT RightFoot
			{
				OFFSET 0.430392 -48.264973 -6.423500
				CHANNELS 3 Xrotation Yrotation Zrotation
				JOINT RightToeBase
				{
					OFFSET -4.230900 -16.068199 23.438400
					CHANNELS 3 Xrotation Yrotation Zrotation
					JOINT RightToe_End
					{
						OFFSET -4.510700 0.695400 19.974600
						CHANNELS 3 Xrotation Yrotation Zrotation
						End Site
						{
							OFFSET 0.000000 0.000000 0.000000
						}
					}
				}
			}
		}
	}
}
MOTION
Frames: 4
Frame Time: 0.016667
1.580620 80.616173 -87.864136 35.742988 -69.058923 28.016965 0.739172 9.816299 -3.304118 -1.602548 6.808460 -2.710778 0.000000 0.000000 0.000000 -1.615872 2.233981 1.483570 13.856777 5.273904 -5.005350 3.706274 16.403031 6.692206 -0.000001 -0.000001 0.000000 4.053405 5.979554 -12.991226 0.000000 0.000000 0.000000 -54.011620 -35.171683 -50.958593 0.000241 -82.344774 0.000199 -61.076870 33.044373 41.897750 -14.557462 10.837966 12.229956 0.749545 -4.257877 13.305516 -10.783719 -23.179372 -4.132422 -0.000001 0.000000 -0.000001 -0.809537 2.578166 -31.496451 3.095891 5.163789 -61.866972 -0.000001 0.000000 -0.000001 -2.430846 1.729222 -41.460932 2.952356 5.084727 -60.259925 -0.000001 0.000000 0.000001 -6.054130 -0.166582 -49.857587 3.046256 5.137028 -61.313959 -0.000000 0.000000 -0.000001 -8.298311 -6.522645 -38.520160 2.848774 5.024392 -59.084415 -0.000001 -0.000000 -0.000001 -14.532551 3.553466 -4.417810 0.000000 0.000000 0.000000 79.542245 138.739064 -57.059779 -0.000013 34.452946 0.000001 -53.561380 -12.490271 -34.496642 8.377128 -4.904141 11.021988 21.620201 -18.183897 -18.379206 -0.702886 -49.821220 -32.535159 0.000003 -0.000000 -0.000001 0.558943 -4.406590 25.436634 1.653033 -3.560353 49.799097 0.000001 0.000000 -0.000002 10.969823 -12.875573 52.800835 6.387592 -4.324422 111.833672 -0.000001 -0.000000 -0.000001 3.705085 -7.151327 57.622447 5.328202 -4.608684 98.293430 -0.000001 0.000000 0.000001 0.474829 -5.172995 58.987665 3.194330 -4.421925 71.674168 -0.000001 -0.000000 0.000001 -66.248334 -21.955168 19.223492 45.012548 0.709774 11.018561 17.544359 1.017171 -7.371314 -1.937981 0.000002 0.000009 0.000001 -0.000000 0.000003 -32.810730 9.085008 -21.141710 51.881024 -8.293450 -2.732297 -4.518398 -27.728314 34.743359 -1.798246 0.000057 0.000006 -0.000000 0.000001 0.000000 
2.053682 81.286743 -91.384430 34.625268 -68.190286 26.487827 0.691945 8.774342 -2.503246 -1.626989 6.164441 -2.467201 0.000000 0.000000 0.000000 -1.632766 1.585593 1.723307 13.644002 5.603241 -5.278003 3.496011 17.228927 6.531494 0.000001 0.000001 0.000000 3.999908 6.042620 -12.807239 0.000000 0.000000 0.000000 -53.296021 -34.622994 -51.004417 -0.000293 -82.387811 -0.000233 -60.568226 31.239161 41.384171 -14.557461 10.837966 12.229957 0.749543 -4.257874 13.305514 -10.783723 -23.179372 -4.132421 -0.000005 -0.000000 0.000000 -0.809537 2.578166 -31.496454 3.095889 5.163790 -61.866966 -0.000001 -0.000000 0.000001 -2.430848 1.729223 -41.460939 2.952356 5.084728 -60.259931 -0.000001 0.000000 -0.000001 -6.054130 -0.166582 -49.857594 3.046256 5.137027 -61.313952 0.000000 -0.000002 0.000002 -8.298312 -6.522645 -38.520163 2.848776 5.024392 -59.084415 0.000000 0.000002 -0.000003 -14.624219 3.283242 -4.768789 0.000000 0.000000 0.000000 77.652687 137.993495 -55.679941 0.000005 33.172217 0.000004 -53.616258 -11.197042 -33.722690 8.377128 -4.904142 11.021989 21.620199 -18.183893 -18.379213 -0.702892 -49.821217 -32.535159 0.000002 0.000003 -0.000000 0.558943 -4.406591 25.436632 1.653033 -3.560354 49.799097 0.000001 0.000001 -0.000001 10.969823 -12.875574 52.800835 6.387593 -4.324422 111.833672 -0.000002 -0.000000 -0.000000 3.705086 -7.151328 57.622447 5.328201 -4.608683 98.293430 -0.000000 -0.000000 0.000003 0.474830 -5.172996 58.987665 3.194329 -4.421924 71.674168 0.000002 0.000000 -0.000001 -66.747320 -20.454911 18.654676 42.185953 0.825066 10.947313 19.852544 0.709766 -5.717915 -0.384230 0.006781 -1.007835 -0.000001 0.000001 0.000001 -35.099389 7.197112 -21.219050 53.771709 -9.619662 0.013153 -6.402396 -25.142676 33.593958 -1.541030 0.000020 0.000002 -0.000000 -0.000001 0.000000 
2.550516 81.982925 -94.745468 33.576841 -67.222920 24.872586 0.681346 7.836628 -1.550232 -1.619449 5.518452 -2.231736 0.000000 0.000000 0.000000 -1.616520 0.925567 1.956717 13.288393 5.956509 -5.383661 2.808266 18.062150 6.550451 -0.000001 0.000001 -0.000001 3.900271 5.904404 -12.522477 0.000000 0.000000 0.000000 -52.948671 -33.982814 -50.979846 -0.000235 -82.394102 -0.000233 -59.827444 29.409142 40.747000 -14.557462 10.837967 12.229962 0.749543 -4.257873 13.305518 -10.783724 -23.179376 -4.132421 -0.000001 -0.000000 0.000000 -0.809538 2.578168 -31.496454 3.095890 5.163790 -61.866966 -0.000000 -0.000001 -0.000000 -2.430847 1.729222 -41.460928 2.952354 5.084728 -60.259925 0.000001 0.000001 0.000001 -6.054130 -0.166581 -49.857584 3.046254 5.137026 -61.313952 -0.000000 0.000001 0.000002 -8.298311 -6.522645 -38.520160 2.848776 5.024390 -59.084415 0.000002 -0.000001 0.000000 -14.701922 3.010197 -5.023190 0.000000 0.000000 0.000000 75.541141 137.547702 -54.314644 0.000009 31.733161 -0.000004 -53.365006 -9.666780 -32.827621 8.377127 -4.904141 11.021988 21.620195 -18.183891 -18.379211 -0.702898 -49.821220 -32.535159 -0.000002 0.000001 -0.000000 0.558943 -4.406590 25.436632 1.653033 -3.560353 49.799097 -0.000001 -0.000000 -0.000002 10.969824 -12.875573 52.800835 6.387592 -4.324422 111.833672 -0.000002 0.000000 -0.000000 3.705084 -7.151326 57.622454 5.328201 -4.608683 98.293430 -0.000001 0.000000 0.000000 0.474828 -5.172995 58.987658 3.194330 -4.421925 71.674168 -0.000000 0.000000 -0.000001 -67.809257 -18.485113 17.730881 40.306599 0.521455 10.817897 21.267947 0.064913 -5.565069 -0.315010 0.004563 -0.828933 0.000001 0.000000 -0.000001 -36.762639 4.785018 -21.884901 54.989276 -11.188953 3.157747 -8.108976 -21.623260 32.396847 -1.156859 -0.000001 0.000007 -0.000000 -0.000000 0.000000 
2.993191 82.680161 -97.911285 32.924900 -66.411528 23.682361 0.707357 7.130576 -0.724375 -1.604750 4.974513 -2.071096 0.000000 0.000000 0.000000 -1.594768 0.362930 2.116387 12.920238 6.278300 -5.327312 1.884705 18.797645 6.755087 0.000002 -0.000002 0.000001 3.777932 5.614933 -12.196085 0.000000 0.000000 0.000000 -52.876493 -33.357155 -50.874517 0.000746 -82.402879 0.000729 -59.121175 27.942198 40.166673 -14.557462 10.837966 12.229956 0.749543 -4.257872 13.305512 -10.783718 -23.179376 -4.132421 0.000002 -0.000000 -0.000001 -0.809537 2.578166 -31.496447 3.095890 5.163791 -61.866966 0.000001 0.000000 -0.000005 -2.430849 1.729223 -41.460932 2.952357 5.084727 -60.259925 -0.000001 -0.000000 0.000002 -6.054132 -0.166582 -49.857594 3.046253 5.137029 -61.313959 0.000000 -0.000001 0.000001 -8.298313 -6.522646 -38.520167 2.848774 5.024389 -59.084408 -0.000001 0.000001 -0.000002 -14.751595 2.757345 -5.115943 0.000000 0.000000 0.000000 73.753967 137.448145 -53.227630 0.000005 30.448840 0.000000 -52.877894 -8.315531 -32.047750 8.377128 -4.904141 11.021986 21.620195 -18.183893 -18.379206 -0.702890 -49.821220 -32.535162 -0.000000 -0.000000 -0.000001 0.558943 -4.406591 25.436632 1.653033 -3.560354 49.799100 -0.000001 0.000000 -0.000001 10.969823 -12.875571 52.800835 6.387591 -4.324419 111.833672 -0.000001 -0.000000 0.000001 3.705086 -7.151327 57.622454 5.328201 -4.608682 98.293430 0.000000 -0.000000 -0.000001 0.474829 -5.172996 58.987665 3.194330 -4.421924 71.674175 -0.000000 -0.000000 0.000000 -69.503363 -16.340198 16.314612 40.270993 -0.073558 10.631287 21.737791 -0.637693 -6.644076 -0.418377 0.008065 -1.100976 0.000001 -0.000001 0.000000 -39.369046 1.792175 -20.997448 56.576301 -11.178406 3.607639 -9.591858 -20.403647 29.566721 -1.155744 -0.000001 0.000010 -0.000000 -0.000001 -0.000000 
